<?xml version="1.0" encoding="UTF-8"?>
<svg width="24px" height="24px" viewBox="0 0 24 24" version="1.1" xmlns="http://www.w3.org/2000/svg" xmlns:xlink="http://www.w3.org/1999/xlink">
    <g id="symbols/icon/search" stroke="none" stroke-width="1" fill="none" fill-rule="evenodd">
        <path d="M17.8875269,16.4733134 L22.7071068,21.2928932 C23.0976311,21.6834175 23.0976311,22.3165825 22.7071068,22.7071068 C22.3165825,23.0976311 21.6834175,23.0976311 21.2928932,22.7071068 L16.4733134,17.8875269 C14.8414595,19.2086338 12.7631465,20 10.5,20 C5.25329488,20 1,15.7467051 1,10.5 C1,5.25329488 5.25329488,1 10.5,1 C15.7467051,1 20,5.25329488 20,10.5 C20,12.7631465 19.2086338,14.8414595 17.8875269,16.4733134 L17.8875269,16.4733134 Z M10.5,18 C14.6421356,18 18,14.6421356 18,10.5 C18,6.35786438 14.6421356,3 10.5,3 C6.35786438,3 3,6.35786438 3,10.5 C3,14.6421356 6.35786438,18 10.5,18 Z" id="Shape" fill="#FFFFFF" fill-rule="nonzero"></path>
    </g>
</svg>