<svg width="1791.9999999999998" height="1791.9999999999998" xmlns="http://www.w3.org/2000/svg">

 <g>
  <title>background</title>
  <rect fill="none" id="canvas_background" height="402" width="582" y="-1" x="-1"/>
 </g>
 <g>
  <title>Layer 1</title>
  <path fill="#1b51a0" id="svg_1" d="m256,1314.718549l0,192q0,13 -9.5,22.5t-22.5,9.5l-192,0q-13,0 -22.5,-9.5t-9.5,-22.5l0,-192q0,-13 9.5,-22.5t22.5,-9.5l192,0q13,0 22.5,9.5t9.5,22.5zm0,-384l0,192q0,13 -9.5,22.5t-22.5,9.5l-192,0q-13,0 -22.5,-9.5t-9.5,-22.5l0,-192q0,-13 9.5,-22.5t22.5,-9.5l192,0q13,0 22.5,9.5t9.5,22.5zm0,-384l0,192q0,13 -9.5,22.5t-22.5,9.5l-192,0q-13,0 -22.5,-9.5t-9.5,-22.5l0,-192q0,-13 9.5,-22.5t22.5,-9.5l192,0q13,0 22.5,9.5t9.5,22.5zm1536,768l0,192q0,13 -9.5,22.5t-22.5,9.5l-1344,0q-13,0 -22.5,-9.5t-9.5,-22.5l0,-192q0,-13 9.5,-22.5t22.5,-9.5l1344,0q13,0 22.5,9.5t9.5,22.5zm-1536,-1152l0,192q0,13 -9.5,22.5t-22.5,9.5l-192,0q-13,0 -22.5,-9.5t-9.5,-22.5l0,-192q0,-13 9.5,-22.5t22.5,-9.5l192,0q13,0 22.5,9.5t9.5,22.5zm1536,768l0,192q0,13 -9.5,22.5t-22.5,9.5l-1344,0q-13,0 -22.5,-9.5t-9.5,-22.5l0,-192q0,-13 9.5,-22.5t22.5,-9.5l1344,0q13,0 22.5,9.5t9.5,22.5zm0,-384l0,192q0,13 -9.5,22.5t-22.5,9.5l-1344,0q-13,0 -22.5,-9.5t-9.5,-22.5l0,-192q0,-13 9.5,-22.5t22.5,-9.5l1344,0q13,0 22.5,9.5t9.5,22.5zm0,-384l0,192q0,13 -9.5,22.5t-22.5,9.5l-1344,0q-13,0 -22.5,-9.5t-9.5,-22.5l0,-192q0,-13 9.5,-22.5t22.5,-9.5l1344,0q13,0 22.5,9.5t9.5,22.5z"/>
 </g>
</svg>